<svg width="38" height="37" viewBox="0 0 38 37" fill="none" xmlns="http://www.w3.org/2000/svg">
<rect opacity="0.2" width="38" height="37" rx="6" fill="#0076FE"/>
<path d="M26.7639 18.9792C26.8046 18.6667 26.8249 18.3438 26.8249 18C26.8249 17.6667 26.8046 17.3333 26.7537 17.0208L28.8189 15.375C29.002 15.2292 29.0529 14.9479 28.941 14.7396L26.9877 11.2812C26.8656 11.0521 26.6113 10.9792 26.3874 11.0521L23.956 12.0521C23.4473 11.6562 22.9081 11.3229 22.3079 11.0729L21.9416 8.42708C21.9009 8.17708 21.6975 8 21.4533 8H17.5467C17.3025 8 17.1092 8.17708 17.0685 8.42708L16.7023 11.0729C16.1021 11.3229 15.5527 11.6667 15.0542 12.0521L12.6227 11.0521C12.3989 10.9687 12.1446 11.0521 12.0225 11.2812L10.0794 14.7396C9.95727 14.9583 9.99797 15.2292 10.2014 15.375L12.2667 17.0208C12.2158 17.3333 12.1751 17.6771 12.1751 18C12.1751 18.3229 12.1954 18.6667 12.2463 18.9792L10.1811 20.625C9.99797 20.7708 9.9471 21.0521 10.059 21.2604L12.0123 24.7188C12.1344 24.9479 12.3887 25.0208 12.6126 24.9479L15.044 23.9479C15.5527 24.3437 16.0919 24.6771 16.6921 24.9271L17.0584 27.5729C17.1092 27.8229 17.3025 28 17.5467 28H21.4533C21.6975 28 21.9009 27.8229 21.9315 27.5729L22.2977 24.9271C22.8979 24.6771 23.4473 24.3437 23.9458 23.9479L26.3773 24.9479C26.6011 25.0312 26.8554 24.9479 26.9775 24.7188L28.9308 21.2604C29.0529 21.0312 29.002 20.7708 28.8087 20.625L26.7639 18.9792ZM19.5 21.75C17.4857 21.75 15.8375 20.0625 15.8375 18C15.8375 15.9375 17.4857 14.25 19.5 14.25C21.5143 14.25 23.1625 15.9375 23.1625 18C23.1625 20.0625 21.5143 21.75 19.5 21.75Z" fill="#0076FE"/>
</svg>
